# xmcd
#
# Track frame offsets: 
#        150
#        18326
#        59650
#        81099
#        82606
#        136822
#
# Disc length: 2282 seconds
#
# Revision: 0
# Processed by: cddbd v1.5.2PL0 Copyright (c) Steve Scherf et al.
# Submitted via: ExactAudioCopy v0.99pb4
#
DISCID=3d08e806
DTITLE=Teddy Pendergrass - Live - Coast to Coast [Disc 1]
DYEAR=1979
DGENRE=Soul
TTITLE0=Life is a song worth singing
TTITLE1=Only you
TTITLE2=Medley-If you don't know me by now-The love I lost-Bad luck-Wa
TTITLE2=ke up everybody
TTITLE3=Introduction
TTITLE4=When somebody loves you back
TTITLE5=Get up, get down, get funky, get loose
EXTD=
EXTT0=
EXTT1=
EXTT2=
EXTT3=
EXTT4=
EXTT5=
PLAYORDER=
